<svg width="202" height="40" viewBox="0 0 202 40" fill="none" xmlns="http://www.w3.org/2000/svg">
<path d="M31.0235 17.3283C29.8878 18.4636 29.3202 20.0425 29.4752 21.6357L29.4485 21.6092C29.6078 23.484 28.9271 25.3333 27.5879 26.6637C26.2487 27.9941 24.3873 28.6704 22.5001 28.5122L22.5268 28.5386C20.2418 28.3273 18.0689 29.5621 17.0937 31.6258C16.1186 33.6896 16.5507 36.1392 18.1741 37.7505C19.7976 39.3619 22.2637 39.7889 24.3401 38.8183C26.4166 37.8477 27.6575 35.6878 27.4428 33.418L27.4709 33.4445C27.3116 31.5697 27.9923 29.7204 29.3315 28.39C30.6707 27.0596 32.5321 26.3833 34.4193 26.5416L34.3912 26.5151C36.9024 26.7395 39.2391 25.2183 40.0345 22.8413C40.8299 20.4644 39.875 17.8561 37.7284 16.5421C35.5818 15.2282 32.8074 15.5537 31.028 17.3283H31.0235Z" fill="#5454D4"/>
<path d="M20.1036 25.0709L20.0754 25.0445C21.6801 25.2051 23.2726 24.6414 24.4134 23.5088C25.5543 22.3763 26.1229 20.7947 25.9625 19.2003L25.9906 19.2268C25.8313 17.352 26.512 15.5027 27.8512 14.1723C29.1904 12.8419 31.0518 12.1656 32.939 12.3239L32.9109 12.2974C35.196 12.5106 37.3703 11.2772 38.3469 9.21374C39.3235 7.15028 38.8927 4.69999 37.2697 3.08766C35.6468 1.47533 33.1803 1.0473 31.1033 2.01752C29.0262 2.98774 27.7847 5.14781 27.9993 7.41799L27.9727 7.39005C28.1325 9.26501 27.452 11.1146 26.1127 12.4451C24.7733 13.7757 22.9116 14.4518 21.0243 14.293L21.0509 14.3209C19.4462 14.1603 17.8538 14.724 16.7129 15.8566C15.572 16.9891 15.0034 18.5707 15.1639 20.1651L15.1372 20.1386C15.296 22.0133 14.6151 23.8622 13.2761 25.1925C11.937 26.5228 10.0759 27.1993 8.18884 27.0415L8.21549 27.068C5.93035 26.8548 3.75606 28.0882 2.77945 30.1517C1.80284 32.2151 2.23369 34.6654 3.85664 36.2777C5.47958 37.8901 7.94601 38.3181 10.0231 37.3479C12.1001 36.3777 13.3416 34.2176 13.127 31.9474L13.1552 31.9739C12.9959 30.099 13.6766 28.2498 15.0158 26.9194C16.3549 25.5889 18.2164 24.9127 20.1036 25.0709Z" fill="#FF7143"/>
<path d="M10.1828 22.1195C11.3187 20.9845 11.8859 19.4052 11.7297 17.8121L11.7578 17.8386C11.5984 15.9632 12.2795 14.1134 13.6193 12.7829C14.9592 11.4524 16.8215 10.7765 18.7091 10.9357L18.681 10.9092C20.9654 11.1218 23.1386 9.88852 24.1146 7.82572C25.0906 5.76291 24.6598 3.31358 23.0375 1.70185C21.4151 0.0901207 18.9497 -0.337884 16.8733 0.631744C14.7969 1.60137 13.5555 3.7604 13.7695 6.02979L13.7428 6.00332C13.9021 7.87816 13.2214 9.72741 11.8822 11.0578C10.543 12.3883 8.6816 13.0645 6.79443 12.9063L6.82107 12.9327C4.30994 12.709 1.97372 14.2306 1.17879 16.6075C0.383865 18.9845 1.33904 21.5925 3.48565 22.9061C5.63227 24.2198 8.40648 23.8941 10.1857 22.1195H10.1828Z" fill="#5454D4"/>
<path d="M56.0372 7.4519H60.4336V28.7063H56.0372V7.4519Z" fill="#19191B"/>
<path fill-rule="evenodd" clip-rule="evenodd" d="M67.6965 14.2775C64.7952 15.4816 62.9108 18.3046 62.9234 21.4283C62.9082 23.4766 63.7226 25.4448 65.1834 26.8903C66.6442 28.3358 68.6287 29.137 70.6904 29.1136C73.8347 29.1136 76.6687 27.2302 77.8691 24.3431C79.0694 21.456 78.3992 18.1347 76.1714 15.9303C73.9436 13.726 70.5978 13.0735 67.6965 14.2775ZM70.6279 18.1715C72.4779 18.1376 74.0098 19.5908 74.0609 21.4283C74.1109 22.3392 73.7751 23.2293 73.1349 23.8832C72.4946 24.5371 71.6083 24.8953 70.6904 24.8709C68.8401 24.871 67.3354 23.39 67.3183 21.5519C67.3011 19.7139 68.778 18.2054 70.6279 18.1715Z" fill="#19191B"/>
<path fill-rule="evenodd" clip-rule="evenodd" d="M95.9794 27.9724V14.1489L91.6999 14.146V15.6313C90.6559 14.3623 89.0682 13.6601 87.4204 13.7386C83.4008 13.8646 80.2079 17.1382 80.2079 21.1335C80.2079 25.1288 83.4008 28.4024 87.4204 28.5283C89.0682 28.6069 90.6559 27.9047 91.6999 26.6357V27.9666C91.7735 28.8447 91.4414 29.7084 90.7974 30.3142C90.1533 30.92 89.2671 31.2022 88.3885 31.0813C86.9988 31.2222 85.6671 30.4912 85.0475 29.2474L81.2965 31.4019C82.7641 33.7773 85.4443 35.1393 88.242 34.9313C92.1395 34.9313 95.9794 32.8636 95.9794 27.9724ZM89.6123 17.7712C90.9348 18.3637 91.7618 19.6956 91.7014 21.1357C91.7287 22.0655 91.3591 22.9635 90.6837 23.6078C90.0083 24.2522 89.0902 24.5828 88.1561 24.518C86.7053 24.5198 85.3992 23.645 84.8568 22.3082C84.3144 20.9714 84.6446 19.4413 85.691 18.443C86.7375 17.4446 88.2898 17.1787 89.6123 17.7712Z" fill="#19191B"/>
<path fill-rule="evenodd" clip-rule="evenodd" d="M103.242 14.2775C100.341 15.4816 98.4566 18.3046 98.4692 21.4283C98.4539 23.4766 99.2684 25.4448 100.729 26.8903C102.19 28.3358 104.175 29.137 106.236 29.1136C109.38 29.1136 112.215 27.2302 113.415 24.3431C114.615 21.456 113.945 18.1347 111.717 15.9303C109.489 13.726 106.144 13.0735 103.242 14.2775ZM106.174 18.1715C108.024 18.1376 109.556 19.5908 109.607 21.4283C109.657 22.3392 109.321 23.2293 108.681 23.8832C108.04 24.5371 107.154 24.8953 106.236 24.8709C104.386 24.871 102.881 23.39 102.864 21.5519C102.847 19.7139 104.324 18.2054 106.174 18.1715Z" fill="#19191B"/>
<path fill-rule="evenodd" clip-rule="evenodd" d="M117.682 7.82639C116.696 8.23201 116.053 9.18757 116.053 10.2475C116.068 11.6888 117.24 12.8537 118.691 12.8681C119.758 12.8681 120.72 12.2296 121.128 11.2504C121.536 10.2711 121.311 9.14394 120.556 8.39446C119.802 7.64498 118.667 7.42077 117.682 7.82639ZM120.895 14.1489H116.497L116.491 28.7077H120.895V14.1489Z" fill="#19191B"/>
<path fill-rule="evenodd" clip-rule="evenodd" d="M137.985 26.718C139.299 25.2754 139.981 23.3716 139.878 21.4283C139.982 19.4846 139.301 17.5802 137.986 16.1373C136.671 14.6943 134.831 13.832 132.874 13.7415C131.224 13.6521 129.621 14.3038 128.508 15.5165V14.1489H124.112V34.5298H128.508V27.3371C129.621 28.5507 131.224 29.203 132.874 29.1136C134.83 29.0227 136.67 28.1605 137.985 26.718ZM131.937 18.0508C133.852 18.019 135.434 19.5266 135.482 21.4282C135.548 22.3733 135.205 23.3016 134.54 23.9798C133.874 24.6581 132.948 25.0218 131.996 24.9797C130.081 24.9799 128.524 23.4464 128.508 21.5442C128.492 19.642 130.023 18.0826 131.937 18.0508Z" fill="#19191B"/>
<path d="M153.445 24.3387C153.445 27.6872 150.516 29.1137 147.351 29.1137C144.734 29.3491 142.238 27.9764 141.049 25.649L144.858 23.4945C145.175 24.5781 146.212 25.2939 147.345 25.2122C148.399 25.2122 148.927 24.8916 148.927 24.3107C148.927 22.7078 141.717 23.5534 141.717 18.5166C141.717 15.3416 144.414 13.7416 147.462 13.7416C149.795 13.6682 151.984 14.8615 153.176 16.8563L149.425 18.8651C149.088 18.0855 148.315 17.5812 147.462 17.5842C146.699 17.5842 146.23 17.8784 146.23 18.399C146.236 20.0592 153.445 18.9519 153.445 24.3387Z" fill="#19191B"/>
<path d="M169.504 14.1489V28.7077H165.108V27.3386C164.079 28.5641 162.521 29.2249 160.919 29.1151C157.958 29.1151 155.442 27.0195 155.442 23.0857V14.1489H159.838V22.446C159.764 23.1478 160.004 23.8466 160.495 24.3565C160.986 24.8665 161.678 25.1358 162.387 25.093C163.999 25.093 165.113 24.1622 165.113 22.0945V14.1533L169.504 14.1489Z" fill="#19191B"/>
<path d="M194.714 19.768V28.7063H190.317V20.146C190.317 18.6901 189.614 17.7592 188.208 17.7592C186.742 17.7592 185.921 18.7783 185.921 20.496V28.7063H181.526V20.146C181.526 18.6901 180.823 17.7592 179.415 17.7592C177.949 17.7592 177.129 18.7783 177.129 20.496V28.7063H172.733V14.1474H177.129V15.4857C178.055 14.2793 179.534 13.622 181.057 13.7401C182.587 13.6657 184.044 14.3949 184.895 15.6607C185.885 14.3374 187.49 13.6121 189.145 13.7401C192.509 13.7416 194.714 16.1283 194.714 19.768Z" fill="#19191B"/>
<path d="M198.432 14.0593C200.234 14.0593 201.694 12.6081 201.694 10.8181C201.694 9.02803 200.234 7.5769 198.432 7.5769C196.63 7.5769 195.169 9.02803 195.169 10.8181C195.169 12.6081 196.63 14.0593 198.432 14.0593Z" fill="#19191B"/>
</svg>
